<svg xmlns="http://www.w3.org/2000/svg" width="760" height="190" viewBox="0 0 760 190" role="img" aria-labelledby="title desc">
  <title id="title">Codex usage activity graph</title>
  <desc id="desc">Last 30 days: 1.34B tokens across 29 active days - updated Jun 18, 2026</desc>
  <rect width="760" height="190" rx="8" fill="#ffffff"/>
  <text x="28" y="32" fill="#24292f" font-family="-apple-system,BlinkMacSystemFont,Segoe UI,Helvetica,Arial,sans-serif" font-size="18" font-weight="600">Codex usage</text>
  <text x="28" y="54" fill="#57606a" font-family="-apple-system,BlinkMacSystemFont,Segoe UI,Helvetica,Arial,sans-serif" font-size="13">Last 30 days: 1.34B tokens across 29 active days - updated Jun 18, 2026</text>
  <line x1="28" y1="156" x2="732" y2="156" stroke="#d0d7de" stroke-width="1"/>
  <rect x="28.00" y="81" width="17.67" height="75" rx="4" fill="#216e39"><title>2026-05-20: relative Codex activity</title></rect><rect x="51.67" y="85" width="17.67" height="71" rx="4" fill="#216e39"><title>2026-05-21: relative Codex activity</title></rect><rect x="75.33" y="99" width="17.67" height="57" rx="4" fill="#30a14e"><title>2026-05-22: relative Codex activity</title></rect><rect x="99.00" y="102" width="17.67" height="54" rx="4" fill="#30a14e"><title>2026-05-23: relative Codex activity</title></rect><rect x="122.67" y="152" width="17.67" height="4" rx="4" fill="#ebedf0"><title>2026-05-24: relative Codex activity</title></rect><rect x="146.33" y="98" width="17.67" height="58" rx="4" fill="#30a14e"><title>2026-05-25: relative Codex activity</title></rect><rect x="170.00" y="84" width="17.67" height="72" rx="4" fill="#216e39"><title>2026-05-26: relative Codex activity</title></rect><rect x="193.67" y="89" width="17.67" height="67" rx="4" fill="#216e39"><title>2026-05-27: relative Codex activity</title></rect><rect x="217.33" y="86" width="17.67" height="70" rx="4" fill="#216e39"><title>2026-05-28: relative Codex activity</title></rect><rect x="241.00" y="88" width="17.67" height="68" rx="4" fill="#216e39"><title>2026-05-29: relative Codex activity</title></rect><rect x="264.67" y="102" width="17.67" height="54" rx="4" fill="#30a14e"><title>2026-05-30: relative Codex activity</title></rect><rect x="288.33" y="106" width="17.67" height="50" rx="4" fill="#30a14e"><title>2026-05-31: relative Codex activity</title></rect><rect x="312.00" y="90" width="17.67" height="66" rx="4" fill="#216e39"><title>2026-06-01: relative Codex activity</title></rect><rect x="335.67" y="80" width="17.67" height="76" rx="4" fill="#216e39"><title>2026-06-02: relative Codex activity</title></rect><rect x="359.33" y="80" width="17.67" height="76" rx="4" fill="#216e39"><title>2026-06-03: relative Codex activity</title></rect><rect x="383.00" y="85" width="17.67" height="71" rx="4" fill="#216e39"><title>2026-06-04: relative Codex activity</title></rect><rect x="406.67" y="87" width="17.67" height="69" rx="4" fill="#216e39"><title>2026-06-05: relative Codex activity</title></rect><rect x="430.33" y="87" width="17.67" height="69" rx="4" fill="#216e39"><title>2026-06-06: relative Codex activity</title></rect><rect x="454.00" y="88" width="17.67" height="68" rx="4" fill="#216e39"><title>2026-06-07: relative Codex activity</title></rect><rect x="477.67" y="94" width="17.67" height="62" rx="4" fill="#30a14e"><title>2026-06-08: relative Codex activity</title></rect><rect x="501.33" y="107" width="17.67" height="49" rx="4" fill="#30a14e"><title>2026-06-09: relative Codex activity</title></rect><rect x="525.00" y="103" width="17.67" height="53" rx="4" fill="#30a14e"><title>2026-06-10: relative Codex activity</title></rect><rect x="548.67" y="78" width="17.67" height="78" rx="4" fill="#216e39"><title>2026-06-11: relative Codex activity</title></rect><rect x="572.33" y="96" width="17.67" height="60" rx="4" fill="#30a14e"><title>2026-06-12: relative Codex activity</title></rect><rect x="596.00" y="83" width="17.67" height="73" rx="4" fill="#216e39"><title>2026-06-13: relative Codex activity</title></rect><rect x="619.67" y="88" width="17.67" height="68" rx="4" fill="#216e39"><title>2026-06-14: relative Codex activity</title></rect><rect x="643.33" y="81" width="17.67" height="75" rx="4" fill="#216e39"><title>2026-06-15: relative Codex activity</title></rect><rect x="667.00" y="82" width="17.67" height="74" rx="4" fill="#216e39"><title>2026-06-16: relative Codex activity</title></rect><rect x="690.67" y="83" width="17.67" height="73" rx="4" fill="#216e39"><title>2026-06-17: relative Codex activity</title></rect><rect x="714.33" y="88" width="17.67" height="68" rx="4" fill="#216e39"><title>2026-06-18: relative Codex activity</title></rect>
  <text x="28" y="180" fill="#57606a" font-family="-apple-system,BlinkMacSystemFont,Segoe UI,Helvetica,Arial,sans-serif" font-size="12">May 20</text>
  <text x="732" y="180" fill="#57606a" font-family="-apple-system,BlinkMacSystemFont,Segoe UI,Helvetica,Arial,sans-serif" font-size="12" text-anchor="end">Jun 18</text>
</svg>
