<svg xmlns="http://www.w3.org/2000/svg" width="840" height="526" viewBox="0 0 840 526" role="img" aria-labelledby="title desc">
  <title id="title">Codex usage activity graph</title>
  <desc id="desc">Codex activity heatmap from May 1, 2026 to Jun 29, 2026. Calendar grid pads to Jul 2, 2026. Updated Jun 29, 2026. Private fields omitted.</desc>
  <rect width="840" height="526" rx="18" fill="#181818"/>
  <text x="28" y="36" fill="#f5f5f5" font-family="Arial, Helvetica, sans-serif" font-size="21" font-weight="600">Codex Activity</text>
  <text x="512" y="36" fill="#a9a9a9" font-family="Arial, Helvetica, sans-serif" font-size="13">Updated Jun 29, 2026</text>
  <rect x="28" y="58" width="784" height="70" rx="12" fill="#181818" stroke="#2a2a2a"/>
  <line x1="224.00" y1="72" x2="224.00" y2="114" stroke="#2a2a2a" stroke-width="1"/><line x1="420.00" y1="72" x2="420.00" y2="114" stroke="#2a2a2a" stroke-width="1"/><line x1="616.00" y1="72" x2="616.00" y2="114" stroke="#2a2a2a" stroke-width="1"/>

  <g>
    <text x="126.00" y="87" fill="#f5f5f5" font-family="Arial, Helvetica, sans-serif" font-size="19" text-anchor="middle">2.30B</text>
    <text x="126.00" y="110" fill="#a9a9a9" font-family="Arial, Helvetica, sans-serif" font-size="13" text-anchor="middle">Lifetime tokens</text>
  </g>
  <g>
    <text x="322.00" y="87" fill="#f5f5f5" font-family="Arial, Helvetica, sans-serif" font-size="19" text-anchor="middle">208.8M</text>
    <text x="322.00" y="110" fill="#a9a9a9" font-family="Arial, Helvetica, sans-serif" font-size="13" text-anchor="middle">Peak tokens</text>
  </g>
  <g>
    <text x="518.00" y="87" fill="#f5f5f5" font-family="Arial, Helvetica, sans-serif" font-size="19" text-anchor="middle">15 days</text>
    <text x="518.00" y="110" fill="#a9a9a9" font-family="Arial, Helvetica, sans-serif" font-size="13" text-anchor="middle">Current streak</text>
  </g>
  <g>
    <text x="714.00" y="87" fill="#f5f5f5" font-family="Arial, Helvetica, sans-serif" font-size="19" text-anchor="middle">15 days</text>
    <text x="714.00" y="110" fill="#a9a9a9" font-family="Arial, Helvetica, sans-serif" font-size="13" text-anchor="middle">Longest streak</text>
  </g>
  <text x="28" y="160" fill="#f5f5f5" font-family="Arial, Helvetica, sans-serif" font-size="18" font-weight="600">Token activity</text>
  <text x="449" y="160" fill="#8b8b8b" font-family="Arial, Helvetica, sans-serif" font-size="12">Less</text>
  <rect x="480" y="158" width="10" height="10" rx="3" fill="#222222"/><rect x="497" y="158" width="10" height="10" rx="3" fill="#333d4a"/><rect x="514" y="158" width="10" height="10" rx="3" fill="#4b5f77"/><rect x="531" y="158" width="10" height="10" rx="3" fill="#6b8bb2"/><rect x="548" y="158" width="10" height="10" rx="3" fill="#91c2fa"/>
  <text x="572" y="160" fill="#8b8b8b" font-family="Arial, Helvetica, sans-serif" font-size="12">More</text>
  <rect x="28" y="182" width="18" height="18" rx="4" fill="#222222"><title>2026-05-01: no recorded activity</title></rect>
  <rect x="28" y="205" width="18" height="18" rx="4" fill="#91c2fa"><title>2026-05-02: 51.3M tokens</title></rect>
  <rect x="28" y="228" width="18" height="18" rx="4" fill="#6b8bb2"><title>2026-05-03: 479.0K tokens</title></rect>
  <rect x="28" y="251" width="18" height="18" rx="4" fill="#91c2fa"><title>2026-05-04: 70.9M tokens</title></rect>
  <rect x="28" y="274" width="18" height="18" rx="4" fill="#222222"><title>2026-05-05: no recorded activity</title></rect>
  <rect x="28" y="297" width="18" height="18" rx="4" fill="#91c2fa"><title>2026-05-06: 12.5M tokens</title></rect>
  <rect x="28" y="320" width="18" height="18" rx="4" fill="#91c2fa"><title>2026-05-07: 73.4M tokens</title></rect>
  <rect x="51" y="182" width="18" height="18" rx="4" fill="#91c2fa"><title>2026-05-08: 58.1M tokens</title></rect>
  <rect x="51" y="205" width="18" height="18" rx="4" fill="#222222"><title>2026-05-09: no recorded activity</title></rect>
  <rect x="51" y="228" width="18" height="18" rx="4" fill="#6b8bb2"><title>2026-05-10: 3.22M tokens</title></rect>
  <rect x="51" y="251" width="18" height="18" rx="4" fill="#91c2fa"><title>2026-05-11: 22.8M tokens</title></rect>
  <rect x="51" y="274" width="18" height="18" rx="4" fill="#6b8bb2"><title>2026-05-12: 2.35M tokens</title></rect>
  <rect x="51" y="297" width="18" height="18" rx="4" fill="#222222"><title>2026-05-13: no recorded activity</title></rect>
  <rect x="51" y="320" width="18" height="18" rx="4" fill="#91c2fa"><title>2026-05-14: 104.8M tokens</title></rect>
  <rect x="74" y="182" width="18" height="18" rx="4" fill="#91c2fa"><title>2026-05-15: 16.7M tokens</title></rect>
  <rect x="74" y="205" width="18" height="18" rx="4" fill="#91c2fa"><title>2026-05-16: 139.0M tokens</title></rect>
  <rect x="74" y="228" width="18" height="18" rx="4" fill="#222222"><title>2026-05-17: no recorded activity</title></rect>
  <rect x="74" y="251" width="18" height="18" rx="4" fill="#91c2fa"><title>2026-05-18: 13.3M tokens</title></rect>
  <rect x="74" y="274" width="18" height="18" rx="4" fill="#91c2fa"><title>2026-05-19: 26.6M tokens</title></rect>
  <rect x="74" y="297" width="18" height="18" rx="4" fill="#6b8bb2"><title>2026-05-20: 528.2K tokens</title></rect>
  <rect x="74" y="320" width="18" height="18" rx="4" fill="#91c2fa"><title>2026-05-21: 50.9M tokens</title></rect>
  <rect x="97" y="182" width="18" height="18" rx="4" fill="#91c2fa"><title>2026-05-22: 9.80M tokens</title></rect>
  <rect x="97" y="205" width="18" height="18" rx="4" fill="#6b8bb2"><title>2026-05-23: 281.0K tokens</title></rect>
  <rect x="97" y="228" width="18" height="18" rx="4" fill="#222222"><title>2026-05-24: no recorded activity</title></rect>
  <rect x="97" y="251" width="18" height="18" rx="4" fill="#6b8bb2"><title>2026-05-25: 2.09M tokens</title></rect>
  <rect x="97" y="274" width="18" height="18" rx="4" fill="#91c2fa"><title>2026-05-26: 85.9M tokens</title></rect>
  <rect x="97" y="297" width="18" height="18" rx="4" fill="#91c2fa"><title>2026-05-27: 24.0M tokens</title></rect>
  <rect x="97" y="320" width="18" height="18" rx="4" fill="#91c2fa"><title>2026-05-28: 5.06M tokens</title></rect>
  <rect x="120" y="182" width="18" height="18" rx="4" fill="#91c2fa"><title>2026-05-29: 122.6M tokens</title></rect>
  <rect x="120" y="205" width="18" height="18" rx="4" fill="#6b8bb2"><title>2026-05-30: 578.4K tokens</title></rect>
  <rect x="120" y="228" width="18" height="18" rx="4" fill="#6b8bb2"><title>2026-05-31: 123.3K tokens</title></rect>
  <rect x="120" y="251" width="18" height="18" rx="4" fill="#91c2fa"><title>2026-06-01: 26.1M tokens</title></rect>
  <rect x="120" y="274" width="18" height="18" rx="4" fill="#91c2fa"><title>2026-06-02: 94.3M tokens</title></rect>
  <rect x="120" y="297" width="18" height="18" rx="4" fill="#91c2fa"><title>2026-06-03: 79.3M tokens</title></rect>
  <rect x="120" y="320" width="18" height="18" rx="4" fill="#91c2fa"><title>2026-06-04: 47.5M tokens</title></rect>
  <rect x="143" y="182" width="18" height="18" rx="4" fill="#91c2fa"><title>2026-06-05: 30.0M tokens</title></rect>
  <rect x="143" y="205" width="18" height="18" rx="4" fill="#91c2fa"><title>2026-06-06: 24.9M tokens</title></rect>
  <rect x="143" y="228" width="18" height="18" rx="4" fill="#91c2fa"><title>2026-06-07: 15.1M tokens</title></rect>
  <rect x="143" y="251" width="18" height="18" rx="4" fill="#91c2fa"><title>2026-06-08: 12.8M tokens</title></rect>
  <rect x="143" y="274" width="18" height="18" rx="4" fill="#222222"><title>2026-06-09: no recorded activity</title></rect>
  <rect x="143" y="297" width="18" height="18" rx="4" fill="#6b8bb2"><title>2026-06-10: 619.4K tokens</title></rect>
  <rect x="143" y="320" width="18" height="18" rx="4" fill="#91c2fa"><title>2026-06-11: 208.8M tokens</title></rect>
  <rect x="166" y="182" width="18" height="18" rx="4" fill="#91c2fa"><title>2026-06-12: 181.9M tokens</title></rect>
  <rect x="166" y="205" width="18" height="18" rx="4" fill="#91c2fa"><title>2026-06-13: 8.76M tokens</title></rect>
  <rect x="166" y="228" width="18" height="18" rx="4" fill="#222222"><title>2026-06-14: no recorded activity</title></rect>
  <rect x="166" y="251" width="18" height="18" rx="4" fill="#91c2fa"><title>2026-06-15: 76.0M tokens</title></rect>
  <rect x="166" y="274" width="18" height="18" rx="4" fill="#91c2fa"><title>2026-06-16: 147.4M tokens</title></rect>
  <rect x="166" y="297" width="18" height="18" rx="4" fill="#91c2fa"><title>2026-06-17: 53.0M tokens</title></rect>
  <rect x="166" y="320" width="18" height="18" rx="4" fill="#91c2fa"><title>2026-06-18: 100.2M tokens</title></rect>
  <rect x="189" y="182" width="18" height="18" rx="4" fill="#6b8bb2"><title>2026-06-19: 776.1K tokens</title></rect>
  <rect x="189" y="205" width="18" height="18" rx="4" fill="#6b8bb2"><title>2026-06-20: 1.18M tokens</title></rect>
  <rect x="189" y="228" width="18" height="18" rx="4" fill="#91c2fa"><title>2026-06-21: 8.30M tokens</title></rect>
  <rect x="189" y="251" width="18" height="18" rx="4" fill="#91c2fa"><title>2026-06-22: 25.8M tokens</title></rect>
  <rect x="189" y="274" width="18" height="18" rx="4" fill="#91c2fa"><title>2026-06-23: 13.4M tokens</title></rect>
  <rect x="189" y="297" width="18" height="18" rx="4" fill="#91c2fa"><title>2026-06-24: 45.3M tokens</title></rect>
  <rect x="189" y="320" width="18" height="18" rx="4" fill="#91c2fa"><title>2026-06-25: 46.1M tokens</title></rect>
  <rect x="212" y="182" width="18" height="18" rx="4" fill="#91c2fa"><title>2026-06-26: 52.6M tokens</title></rect>
  <rect x="212" y="205" width="18" height="18" rx="4" fill="#91c2fa"><title>2026-06-27: 37.2M tokens</title></rect>
  <rect x="212" y="228" width="18" height="18" rx="4" fill="#91c2fa"><title>2026-06-28: 22.5M tokens</title></rect>
  <rect x="212" y="251" width="18" height="18" rx="4" fill="#6b8bb2"><title>2026-06-29: 2.17M tokens</title></rect>
  <rect x="212" y="274" width="18" height="18" rx="4" fill="#222222"><title>2026-06-30: no recorded activity</title></rect>
  <rect x="212" y="297" width="18" height="18" rx="4" fill="#222222"><title>2026-07-01: no recorded activity</title></rect>
  <rect x="212" y="320" width="18" height="18" rx="4" fill="#222222"><title>2026-07-02: no recorded activity</title></rect>
  <text x="28" y="366" fill="#8b8b8b" font-family="Arial, Helvetica, sans-serif" font-size="13">May</text>
  <text x="120" y="366" fill="#8b8b8b" font-family="Arial, Helvetica, sans-serif" font-size="13">Jun</text>
  <text x="212" y="366" fill="#8b8b8b" font-family="Arial, Helvetica, sans-serif" font-size="13">Jul</text>

  <text x="28" y="392" fill="#f5f5f5" font-family="Arial, Helvetica, sans-serif" font-size="18" font-weight="600">Usage signals</text>
  <rect x="28" y="410" width="784" height="78" rx="12" fill="#181818" stroke="#2a2a2a"/>
  <line x1="224.00" y1="426" x2="224.00" y2="476" stroke="#2a2a2a" stroke-width="1"/><line x1="420.00" y1="426" x2="420.00" y2="476" stroke="#2a2a2a" stroke-width="1"/><line x1="616.00" y1="426" x2="616.00" y2="476" stroke="#2a2a2a" stroke-width="1"/>

  <g>
    <text x="126.00" y="448" fill="#f5f5f5" font-family="Arial, Helvetica, sans-serif" font-size="17" text-anchor="middle">Extra High · 69%</text>
    <text x="126.00" y="471" fill="#a9a9a9" font-family="Arial, Helvetica, sans-serif" font-size="13" text-anchor="middle">Top reasoning</text>
  </g>
  <g>
    <text x="322.00" y="448" fill="#f5f5f5" font-family="Arial, Helvetica, sans-serif" font-size="17" text-anchor="middle">485</text>
    <text x="322.00" y="471" fill="#a9a9a9" font-family="Arial, Helvetica, sans-serif" font-size="13" text-anchor="middle">Threads</text>
  </g>
  <g>
    <text x="518.00" y="448" fill="#f5f5f5" font-family="Arial, Helvetica, sans-serif" font-size="17" text-anchor="middle">92</text>
    <text x="518.00" y="471" fill="#a9a9a9" font-family="Arial, Helvetica, sans-serif" font-size="13" text-anchor="middle">Tool-enabled</text>
  </g>
  <g>
    <text x="714.00" y="448" fill="#f5f5f5" font-family="Arial, Helvetica, sans-serif" font-size="17" text-anchor="middle">10</text>
    <text x="714.00" y="471" fill="#a9a9a9" font-family="Arial, Helvetica, sans-serif" font-size="13" text-anchor="middle">Tracked tools</text>
  </g>
</svg>
